<?xml version="1.0" encoding="utf-8"?>
<!-- Generator: Adobe Illustrator 19.2.1, SVG Export Plug-In . SVG Version: 6.00 Build 0)  -->
<svg version="1.1" id="Layer_1" xmlns="http://www.w3.org/2000/svg" xmlns:xlink="http://www.w3.org/1999/xlink" x="0px" y="0px"
	 viewBox="0 0 2800 1363.4" style="enable-background:new 0 0 2800 1363.4;" xml:space="preserve">
<style type="text/css">
	.st0{clip-path:url(#SVGID_2_);fill:#FFFFFF;}
</style>
<g id="Logo">
	<defs>
		<path id="SVGID_1_" d="M758.4,1315.6h32.9l22.5-49.2h86.6l21.2,49.2h33.4l-96.6-215.1L758.4,1315.6z M826.6,1237.7l31.5-68.8
			l30,68.8H826.6z M1128,1253.8l-147.6-154.4v216.1h30.5v-141.7l147.6,154v-214.7H1128V1253.8z M410.1,664.3l243,299.4l241.3-299.3
			v359.2h377.9V541.4H1014V283.2h258.2v-258H960L653.1,408.4L344.4,25.2H32.2v998.3h377.9V664.3z M152.4,1255.3L83,1098l-42.6,217.6
			H72l21.8-122.3l58.2,131.6l59.9-131.5l19.5,122.2h31.3L224.4,1098L152.4,1255.3z M629,1139.3c-10.3-9.4-21.8-16.1-34.5-20.1
			c-11.8-4-27.9-6-48.2-6h-42.5v202.4h41.9c20.5,0,36.4-1.9,47.6-5.6c12-3.8,23.4-10.4,34.3-20.1c21.8-19.2,32.6-44.4,32.6-75.5
			C660.4,1183.4,649.9,1158.3,629,1139.3z M607,1268c-7.3,6.6-15.6,11.5-24.6,14.6c-9.1,2.9-20.5,4.3-34.2,4.3h-13.8v-145h13.8
			c26,0,45.8,6.2,59.1,18.5c14.8,13.8,22.3,31.8,22.3,54C629.6,1236.4,622,1254.3,607,1268z M424.8,1235.1c0,17.7-2.8,30.4-8.5,38.1
			c-8.5,11.6-20.5,17.4-35.9,17.4c-15.4,0-27.3-5.8-35.8-17.4c-5.7-8-8.5-20.8-8.5-38.1v-121.9h-30.5v130.3
			c0,21.3,6.6,38.9,19.9,52.7c14.9,15.4,33.2,23.1,54.9,23.1s40.1-7.7,55-23.1c13.3-13.8,19.9-31.4,19.9-52.7v-130.3h-30.5
			L424.8,1235.1L424.8,1235.1z M2457.4,25.2l-306.9,383.2L1841.9,25.2h-312.2v258h258.9v258.2h-258.9v482.2h377.9V664.3l243,299.4
			l241.3-299.3v359.2h377.9V25.2H2457.4z M2391.8,1113.2h-30.5v202.4h90.1v-28.7h-59.5V1113.2z M2480.2,1315.6h111.7v-28.7h-81.1
			v-67.6h78.8v-28.7h-78.8v-48.6h81.1v-28.7h-111.7V1315.6z M2704.2,1195.2l-20.2-8.3c-14.7-6-22-14-22-23.9
			c0-7.2,2.8-13.1,8.4-17.8c5.6-4.8,12.6-7.2,21.1-7.2c6.9,0,12.5,1.4,16.9,4.2c4.2,2.4,8.6,7.7,13.2,15.7l24.8-14.7
			c-13.1-22.7-31.3-34.1-54.7-34.1c-17.3,0-31.8,5.2-43.4,15.5c-11.6,10.2-17.4,22.9-17.4,38.1c0,22.5,13.9,39.7,41.6,51.4l19.5,8.1
			c5.1,2.2,9.4,4.5,13.1,6.9c3.7,2.4,6.7,5,9,7.7c2.3,2.8,4,5.8,5.1,9c1.1,3.3,1.6,6.9,1.6,10.8c0,9.8-3.1,17.9-9.4,24.2
			s-14.2,9.6-23.7,9.6c-12.1,0-21.2-4.4-27.5-13.1c-3.5-4.5-5.9-12.8-7.3-24.6l-30.9,6.8c2.8,18.9,9.8,33.5,21.1,43.9
			c11.4,10.4,25.9,15.6,43.5,15.6c18.5,0,34-6.1,46.5-18.3c12.4-12.1,18.6-27.5,18.6-46.1c0-13.9-3.8-25.6-11.4-35.2
			C2732.7,1210,2720.7,1201.9,2704.2,1195.2z M2188.6,1146.4c-17,20.2-25.6,43.2-25.6,68.9c0,28.8,10.2,53.3,30.5,73.7
			c20.4,20.2,45.1,30.3,74.1,30.3c19.2,0,37.6-4.9,55.1-14.8v-36.8c-5,4.2-9.7,7.8-14.2,10.8s-8.9,5.3-13,7.1
			c-7.5,3.5-16.6,5.2-27.4,5.2c-20.8,0-38.4-7.3-52.7-21.9c-14.3-14.6-21.5-32.5-21.5-53.7c0-21.5,7.2-39.7,21.5-54.5
			c14.2-14.9,31.8-22.4,52.6-22.4c18.9,0,37.1,7.4,54.8,22.2v-36.2c-16.9-9.9-34.5-14.8-52.7-14.8
			C2236.7,1109.3,2209.6,1121.6,2188.6,1146.4z M1923.2,1209.5c8.2-10.3,12.3-22.6,12.3-37c0-18.3-6.6-33.1-19.7-44.3
			c-11.9-10.1-31.2-15.1-57.9-15.1h-35.8v202.4h30.5v-82.8h5.5l57.8,82.8h37.4l-62.7-86.2
			C1904.1,1226.4,1914.9,1219.8,1923.2,1209.5z M1852.6,1206.1v-64.2h10.9c28.1,0,42.2,10.3,42.2,31.1c0,22.1-14.5,33.2-43.4,33.2
			L1852.6,1206.1L1852.6,1206.1z M1742.9,1315.6h30.5v-202.4h-30.5V1315.6z M1960.5,1315.6h32.9l22.5-49.2h86.6l21.2,49.2h33.4
			l-96.6-215.1L1960.5,1315.6z M2028.7,1237.7l31.5-68.8l30,68.8H2028.7z M1589.8,1255.3l-69.5-157.3l-42.6,217.6h31.6l21.8-122.3
			l58.2,131.6l59.9-131.5l19.5,122.2h31.3l-38.3-217.6L1589.8,1255.3z M1332.3,1139.3c-10.3-9.4-21.8-16.1-34.5-20.1
			c-11.8-4-27.9-6-48.2-6h-42.5v202.4h41.9c20.5,0,36.4-1.9,47.6-5.6c12-3.8,23.4-10.4,34.3-20.1c21.8-19.2,32.6-44.4,32.6-75.5
			C1363.6,1183.4,1353.2,1158.3,1332.3,1139.3z M1310.2,1268c-7.3,6.6-15.6,11.5-24.6,14.6c-9.1,2.9-20.5,4.3-34.2,4.3h-13.8v-145
			h13.8c26,0,45.8,6.2,59.1,18.5c14.8,13.8,22.3,31.8,22.3,54C1332.8,1236.4,1325.3,1254.3,1310.2,1268z"/>
	</defs>
	<clipPath id="SVGID_2_">
		<use xlink:href="#SVGID_1_"  style="overflow:visible;"/>
	</clipPath>
	<rect id="White" class="st0" width="2800" height="1575"/>
</g>
</svg>
